<svg width="49" height="49" viewBox="0 0 49 49" fill="none" xmlns="http://www.w3.org/2000/svg">
<g filter="url(#filter0_d_1686_42171)">
<path d="M24.4753 42.8753C23.5904 42.8753 22.6901 42.8107 21.8052 42.6817C16.9319 41.978 12.624 39.4185 9.67423 35.4762C6.72446 31.5309 5.48924 26.6761 6.19288 21.8028C7.48956 12.7998 15.328 6.00615 24.4262 6C25.6952 6 26.7307 7.03242 26.7307 8.30144C26.7307 8.91598 26.491 9.49671 26.0578 9.93303C25.6215 10.3694 25.0438 10.609 24.4293 10.609C17.6079 10.6121 11.7268 15.7066 10.7527 22.4604C10.2242 26.1169 11.1522 29.758 13.3645 32.717C15.5769 35.676 18.8093 37.5933 22.4627 38.1218C23.1264 38.2171 23.7994 38.2662 24.4631 38.2662C27.4528 38.2662 30.3073 37.3137 32.7163 35.51C35.6753 33.2977 37.5926 30.0683 38.1211 26.4118C38.2871 25.2842 39.2672 24.433 40.4041 24.433C40.5117 24.433 40.6223 24.4422 40.7329 24.4576C41.9896 24.6389 42.8653 25.8096 42.6841 27.0663C41.9804 31.9396 39.4209 36.2506 35.4786 39.1973C32.2646 41.6032 28.4575 42.8753 24.4753 42.8753Z" fill="#E8175D"/>
<path d="M24.4269 29.9299C23.2715 29.9299 22.1899 29.4813 21.3726 28.6701L16.7574 24.0427C15.8633 23.1424 15.8664 21.6798 16.7636 20.7826C17.1999 20.3493 17.7776 20.1097 18.3921 20.1097C19.0097 20.1097 19.5905 20.3493 20.0237 20.7856L24.4269 25.2072L38.9299 10.7072C39.3662 10.2709 39.9439 10.0312 40.5584 10.0312C41.173 10.0312 41.7537 10.2709 42.187 10.7072C42.6233 11.1405 42.863 11.7182 42.863 12.3358C42.863 12.9534 42.6233 13.531 42.187 13.9643L27.4811 28.6701C26.6668 29.4844 25.5822 29.9299 24.4269 29.9299Z" fill="#E8175D"/>
</g>
<defs>
<filter id="filter0_d_1686_42171" x="0.581087" y="0.581087" width="47.7008" height="47.7128" filterUnits="userSpaceOnUse" color-interpolation-filters="sRGB">
<feFlood flood-opacity="0" result="BackgroundImageFix"/>
<feColorMatrix in="SourceAlpha" type="matrix" values="0 0 0 0 0 0 0 0 0 0 0 0 0 0 0 0 0 0 127 0" result="hardAlpha"/>
<feOffset/>
<feGaussianBlur stdDeviation="2.70946"/>
<feComposite in2="hardAlpha" operator="out"/>
<feColorMatrix type="matrix" values="0 0 0 0 0.909804 0 0 0 0 0.0901961 0 0 0 0 0.364706 0 0 0 1 0"/>
<feBlend mode="normal" in2="BackgroundImageFix" result="effect1_dropShadow_1686_42171"/>
<feBlend mode="normal" in="SourceGraphic" in2="effect1_dropShadow_1686_42171" result="shape"/>
</filter>
</defs>
</svg>
