<svg width="160" height="40" viewBox="0 0 160 40" fill="none" xmlns="http://www.w3.org/2000/svg">
<path d="M52.7276 24.3178C52.7776 24.6901 52.5677 25.0418 52.2178 25.1659C50.7881 25.652 48.9086 25.9726 46.8791 25.9726C42.3502 25.9726 38.2412 22.8802 38.2412 17.7298V8.8768C38.2412 3.28162 42.4002 0.32373 47.0191 0.32373C49.0785 0.32373 50.8681 0.768449 51.8479 1.0994C52.2078 1.22351 52.4177 1.58549 52.3577 1.96815L52.0278 4.02627C51.9578 4.48133 51.5079 4.78125 51.0781 4.65715C50.1683 4.39859 48.7286 4.05729 47.229 4.05729C44.4697 4.05729 42.3402 5.9913 42.3402 9.20775V17.3988C42.3402 20.4705 44.4597 22.2597 47.4989 22.2597C49.0286 22.2597 50.5082 21.9598 51.5279 21.6909C51.9678 21.5771 52.4077 21.877 52.4677 22.3528L52.7276 24.3178Z" fill="white"/>
<path d="M70.0924 25.0314L68.6527 19.8085H60.1348L58.6952 25.0314C58.6052 25.3727 58.3053 25.6002 57.9654 25.6002H55.186C54.6762 25.6002 54.3162 25.0934 54.4562 24.5867L61.2745 1.25447C61.3745 0.923514 61.6644 0.695984 62.0044 0.695984H66.8032C67.1331 0.695984 67.433 0.923514 67.533 1.25447L74.3313 24.5867C74.4813 25.0934 74.1114 25.6002 73.6015 25.6002H70.8222C70.4823 25.6002 70.1824 25.3727 70.0924 25.0314ZM61.0046 16.3335H67.7929L64.3738 4.01586L61.0046 16.3335Z" fill="white"/>
<path d="M81.9596 17.4712V24.8142C81.9596 25.2486 81.6197 25.6002 81.1998 25.6002H78.6104C78.1905 25.6002 77.8506 25.2486 77.8506 24.8142V1.482C77.8506 1.04762 78.1905 0.695984 78.6104 0.695984H85.9286C90.2875 0.695984 94.0166 3.2195 94.0166 8.16311V10.0351C94.0166 14.9994 90.2875 17.4608 85.9286 17.4608L81.9596 17.4712ZM81.9596 4.17099V14.0168H85.6887C88.358 14.0168 89.9176 12.4552 89.9176 9.62137V8.41132C89.9176 5.67062 88.318 4.18133 85.6887 4.18133L81.9596 4.17099Z" fill="white"/>
<path d="M101.355 25.6002H98.7657C98.3458 25.6002 98.0059 25.2486 98.0059 24.8142V1.482C98.0059 1.04762 98.3458 0.695984 98.7657 0.695984H101.355C101.775 0.695984 102.115 1.04762 102.115 1.482V24.8142C102.115 25.2486 101.775 25.6002 101.355 25.6002Z" fill="white"/>
<path d="M111.923 4.35715H106.084C105.664 4.35715 105.324 4.00551 105.324 3.57114V1.482C105.324 1.04762 105.664 0.695984 106.084 0.695984H121.9C122.32 0.695984 122.66 1.04762 122.66 1.482V3.57114C122.66 4.00551 122.32 4.35715 121.9 4.35715H116.062V24.8142C116.062 25.2486 115.722 25.6002 115.302 25.6002H112.672C112.253 25.6002 111.913 25.2486 111.913 24.8142V4.35715H111.923Z" fill="white"/>
<path d="M138.366 25.0314L136.926 19.8085H128.408L126.969 25.0314C126.879 25.3727 126.579 25.6002 126.239 25.6002H123.459C122.95 25.6002 122.59 25.0934 122.73 24.5867L129.548 1.25447C129.648 0.923514 129.938 0.695984 130.278 0.695984H135.077C135.407 0.695984 135.706 0.923514 135.806 1.25447L142.625 24.5867C142.775 25.0934 142.405 25.6002 141.895 25.6002H139.116C138.756 25.6002 138.456 25.3727 138.366 25.0314ZM129.278 16.3335H136.066L132.647 4.01586L129.278 16.3335Z" fill="white"/>
<path d="M150.233 21.8873H159.091C159.511 21.8873 159.851 22.239 159.851 22.6733V24.8245C159.851 25.2589 159.511 25.6105 159.091 25.6105H146.884C146.464 25.6105 146.124 25.2589 146.124 24.8245V1.482C146.124 1.04762 146.464 0.695984 146.884 0.695984H149.473C149.893 0.695984 150.233 1.04762 150.233 1.482V21.8873Z" fill="white"/>
<path d="M0 24.8245V1.482C0 1.04762 0.339917 0.695984 0.759813 0.695984H8.23798C13.1968 0.695984 15.5262 3.25053 15.5262 7.48052C15.5262 9.9213 14.3165 11.7622 12.167 12.7447C14.5864 13.6238 16.416 15.7647 16.416 18.5571C16.416 23.2318 13.2368 25.6002 8.34795 25.6002H0.769811C0.339917 25.6002 0 25.2486 0 24.8245ZM11.5572 7.65634C11.5572 5.41206 10.3875 4.13996 7.85807 4.13996H3.97902V11.2348H8.04803C10.4274 11.2348 11.5572 9.85924 11.5572 7.65634ZM7.77809 14.3685H3.98902V22.1666H7.87807C10.6874 22.1666 12.377 20.9358 12.377 18.2468C12.377 15.5578 10.5474 14.3685 7.77809 14.3685Z" fill="white"/>
<path d="M34.9915 5.12248V1.49234C34.9915 1.05796 34.6515 0.706326 34.2316 0.706326L19.7752 0.695984C19.2553 0.695984 18.8254 1.13036 18.8254 1.66816L18.8154 4.88461C18.8154 5.14316 18.8954 5.39138 19.0454 5.59822L23.2743 12.662C23.4743 12.9412 23.4743 13.3343 23.2743 13.6135L19.0454 20.6876C18.8954 20.8945 18.8154 21.1427 18.8154 21.4012V24.8142C18.8154 25.2486 19.1553 25.6002 19.5752 25.6002L34.2316 25.6105C34.6515 25.6105 34.9915 25.2589 34.9915 24.8245V21.184C34.9915 20.7497 34.6515 20.398 34.2316 20.398H32.2321C31.8522 20.398 31.5223 20.698 31.4823 21.091L31.3623 22.1252H22.8344L27.7732 13.5928C27.9632 13.3239 27.9632 12.9516 27.7732 12.6827L22.8344 4.17099H31.3623L31.4823 5.21556C31.5323 5.60857 31.8522 5.90849 32.2321 5.90849H34.2316C34.6515 5.90849 34.9915 5.55686 34.9915 5.12248Z" fill="white"/>
<path d="M32.692 15.5269C33.962 15.5269 34.9914 14.4619 34.9914 13.1481C34.9914 11.8344 33.962 10.7694 32.692 10.7694C31.4221 10.7694 30.3926 11.8344 30.3926 13.1481C30.3926 14.4619 31.4221 15.5269 32.692 15.5269Z" fill="white"/>
<path d="M113.582 32.2193L113.452 33.5431C114.182 32.8398 115.331 32.1469 116.181 32.0745L116.101 32.695C115.341 32.7571 114.202 33.3569 113.412 34.1533L112.632 39.5312H112.032L113.092 32.2193H113.582Z" fill="white"/>
<path d="M117.012 34.8669C117.262 33.1294 118.601 32.0745 120.091 32.0745C121.331 32.0745 122.29 32.7674 122.29 33.9671C122.29 35.6322 121.321 36.3148 118.961 36.3148C118.311 36.3148 117.801 36.2527 117.421 36.1803L117.321 36.8216C117.132 38.1971 117.801 39.1072 119.181 39.1072C120.161 39.1072 121.001 38.8383 121.291 38.7349L121.301 39.283C120.991 39.4278 120.051 39.6864 119.091 39.6864C117.431 39.6864 116.472 38.5798 116.732 36.8526L117.012 34.8669ZM117.491 35.6736C117.891 35.7356 118.471 35.808 119.021 35.808C120.961 35.808 121.67 35.384 121.67 34.0395C121.67 33.1397 120.971 32.6329 120.001 32.6329C118.791 32.6329 117.811 33.481 117.601 34.8876L117.491 35.6736Z" fill="white"/>
<path d="M125.029 39.676C124.08 39.676 123.38 39.4589 123.01 39.3037L123.22 38.7659C123.55 38.9004 124.269 39.1176 125.069 39.1176C126.339 39.1176 127.009 38.6935 127.009 37.4421C127.009 36.6871 126.609 36.4389 125.439 36.139C124.209 35.8184 123.75 35.3219 123.75 34.4015C123.75 32.9536 124.819 32.0745 126.259 32.0745C127.099 32.0745 127.679 32.2399 128.059 32.364L127.869 32.9018C127.529 32.7881 126.929 32.6329 126.199 32.6329C125.109 32.6329 124.349 33.1294 124.349 34.3394C124.349 34.9806 124.659 35.3116 125.779 35.6115C127.089 35.9528 127.609 36.3458 127.609 37.349C127.609 38.89 126.659 39.676 125.029 39.676Z" fill="white"/>
<path d="M129.638 34.8669C129.888 33.1294 131.227 32.0745 132.717 32.0745C133.957 32.0745 134.916 32.7674 134.916 33.9671C134.916 35.6322 133.947 36.3148 131.587 36.3148C130.937 36.3148 130.427 36.2527 130.047 36.1803L129.947 36.8216C129.758 38.1971 130.427 39.1072 131.807 39.1072C132.787 39.1072 133.627 38.8383 133.917 38.7349L133.927 39.283C133.617 39.4278 132.677 39.6864 131.717 39.6864C130.057 39.6864 129.098 38.5798 129.358 36.8526L129.638 34.8669ZM130.117 35.6736C130.517 35.7356 131.097 35.808 131.647 35.808C133.587 35.808 134.296 35.384 134.296 34.0395C134.296 33.1397 133.597 32.6329 132.627 32.6329C131.417 32.6329 130.437 33.481 130.227 34.8876L130.117 35.6736Z" fill="white"/>
<path d="M136.456 34.8875C136.706 33.1811 137.976 32.0641 139.635 32.0641C140.615 32.0641 141.435 32.3123 141.945 32.6433L140.955 39.5209H140.455L140.555 38.5177C139.855 39.1796 138.925 39.6657 138.086 39.6657C136.686 39.6657 135.926 38.5694 136.176 36.8422L136.456 34.8875ZM140.585 37.9282L141.305 33.0052C140.845 32.7984 140.215 32.6433 139.545 32.6433C138.166 32.6433 137.256 33.5741 137.056 34.9392L136.786 36.8215C136.576 38.1971 137.046 39.1072 138.286 39.1072C139.045 39.1072 140.005 38.559 140.585 37.9282Z" fill="white"/>
<path d="M145.064 32.2193L144.934 33.5431C145.664 32.8398 146.814 32.1469 147.664 32.0745L147.584 32.695C146.824 32.7571 145.684 33.3569 144.894 34.1533L144.115 39.5312H143.515L144.574 32.2193H145.064Z" fill="white"/>
<path d="M148.863 36.8009C148.663 38.1971 149.273 39.1072 150.553 39.1072C151.243 39.1072 151.913 38.9418 152.133 38.8694L152.143 39.4175C151.883 39.5106 151.183 39.6864 150.453 39.6864C148.893 39.6864 147.994 38.5901 148.244 36.8526L148.523 34.9186C148.773 33.1915 149.983 32.0848 151.533 32.0848C152.353 32.0848 152.902 32.302 153.132 32.4055L152.902 32.9329C152.742 32.8709 152.173 32.664 151.453 32.664C150.183 32.664 149.313 33.5845 149.113 34.9807L148.863 36.8009Z" fill="white"/>
<path d="M156.132 28.9304L155.532 33.1397C156.472 32.4985 157.481 32.0745 158.321 32.0745C159.481 32.0745 160.011 32.7674 159.821 34.0395L159.021 39.5313H158.421L159.201 34.1429C159.331 33.1604 158.971 32.6536 158.121 32.6536C157.391 32.6536 156.402 33.0053 155.432 33.7292L154.592 39.5313H153.992L155.522 28.9304H156.132Z" fill="white"/>
</svg>
