<svg width="181" height="30" viewBox="0 0 181 30" fill="none" xmlns="http://www.w3.org/2000/svg">
<g clip-path="url(#clip0)">
<path d="M60.2912 27.729C60.3467 28.1367 60.1136 28.5219 59.7251 28.6578C58.1375 29.1902 56.0504 29.5413 53.7968 29.5413C48.7678 29.5413 44.2051 26.1545 44.2051 20.5135V10.8174C44.2051 4.6893 48.8233 1.44971 53.9522 1.44971C56.2392 1.44971 58.2264 1.93678 59.3143 2.29925C59.714 2.43518 59.9471 2.83163 59.8805 3.25074L59.5141 5.50487C59.4364 6.00327 58.9368 6.33176 58.4595 6.19583C57.4492 5.91265 55.8506 5.53885 54.1854 5.53885C51.1214 5.53885 48.7567 7.65705 48.7567 11.1798V20.151C48.7567 23.5152 51.1102 25.4748 54.4851 25.4748C56.1837 25.4748 57.8267 25.1463 58.9591 24.8518C59.4475 24.7272 59.936 25.0557 60.0026 25.5768L60.2912 27.729Z" fill="white"/>
<path d="M79.5744 28.5105L77.9758 22.7902H68.5172L66.9186 28.5105C66.8187 28.8843 66.4856 29.1335 66.1082 29.1335H63.0219C62.4558 29.1335 62.0561 28.5784 62.2115 28.0234L69.7828 2.46909C69.8938 2.10662 70.2158 1.85742 70.5932 1.85742H75.922C76.2883 1.85742 76.6214 2.10662 76.7324 2.46909L84.2815 28.0234C84.448 28.5784 84.0372 29.1335 83.4711 29.1335H80.3848C80.0074 29.1335 79.6743 28.8843 79.5744 28.5105ZM69.4831 18.9842H77.021L73.2243 5.49347L69.4831 18.9842Z" fill="white"/>
<path d="M92.7522 20.2302V28.2726C92.7522 28.7483 92.3747 29.1335 91.9085 29.1335H89.0332C88.5669 29.1335 88.1895 28.7483 88.1895 28.2726V2.71829C88.1895 2.24255 88.5669 1.85742 89.0332 1.85742H97.1595C102 1.85742 106.141 4.62127 106.141 10.0357V12.0859C106.141 17.523 102 20.2189 97.1595 20.2189L92.7522 20.2302ZM92.7522 5.66338V16.4469H96.8931C99.8572 16.4469 101.589 14.7365 101.589 11.6328V10.3076C101.589 7.30583 99.8128 5.67471 96.8931 5.67471L92.7522 5.66338Z" fill="white"/>
<path d="M114.289 29.1335H111.414C110.948 29.1335 110.57 28.7483 110.57 28.2726V2.71829C110.57 2.24255 110.948 1.85742 111.414 1.85742H114.289C114.756 1.85742 115.133 2.24255 115.133 2.71829V28.2726C115.133 28.7483 114.756 29.1335 114.289 29.1335Z" fill="white"/>
<path d="M126.024 5.86727H119.541C119.075 5.86727 118.697 5.48215 118.697 5.0064V2.71829C118.697 2.24255 119.075 1.85742 119.541 1.85742H137.104C137.57 1.85742 137.947 2.24255 137.947 2.71829V5.0064C137.947 5.48215 137.57 5.86727 137.104 5.86727H130.62V28.2726C130.62 28.7483 130.243 29.1335 129.777 29.1335H126.857C126.391 29.1335 126.013 28.7483 126.013 28.2726V5.86727H126.024Z" fill="white"/>
<path d="M155.389 28.5105L153.79 22.7902H144.332L142.733 28.5105C142.633 28.8843 142.3 29.1335 141.923 29.1335H138.836C138.27 29.1335 137.871 28.5784 138.026 28.0234L145.597 2.46909C145.708 2.10662 146.03 1.85742 146.408 1.85742H151.736C152.103 1.85742 152.436 2.10662 152.547 2.46909L160.118 28.0234C160.285 28.5784 159.874 29.1335 159.308 29.1335H156.221C155.822 29.1335 155.489 28.8843 155.389 28.5105ZM145.297 18.9842H152.835L149.039 5.49347L145.297 18.9842Z" fill="white"/>
<path d="M168.565 25.067H178.401C178.867 25.067 179.244 25.4521 179.244 25.9278V28.2839C179.244 28.7597 178.867 29.1448 178.401 29.1448H164.846C164.379 29.1448 164.002 28.7597 164.002 28.2839V2.71829C164.002 2.24255 164.379 1.85742 164.846 1.85742H167.721C168.187 1.85742 168.565 2.24255 168.565 2.71829V25.067Z" fill="white"/>
<path d="M1.74219 28.2839V2.71829C1.74219 2.24255 2.11964 1.85742 2.58591 1.85742H10.8899C16.3963 1.85742 18.9829 4.65525 18.9829 9.2881C18.9829 11.9613 17.6396 13.9776 15.2528 15.0537C17.9394 16.0165 19.971 18.3612 19.971 21.4196C19.971 26.5395 16.4407 29.1335 11.012 29.1335H2.59701C2.11964 29.1335 1.74219 28.7483 1.74219 28.2839ZM14.5756 9.48067C14.5756 7.02265 13.2767 5.6294 10.468 5.6294H6.16061V13.3999H10.679C13.3211 13.3999 14.5756 11.8934 14.5756 9.48067ZM10.3792 16.8321H6.17171V25.3728H10.4902C13.6098 25.3728 15.4859 24.0249 15.4859 21.0798C15.4859 18.1347 13.4543 16.8321 10.3792 16.8321Z" fill="white"/>
<path d="M40.5971 6.70549V2.72962C40.5971 2.25388 40.2197 1.86875 39.7534 1.86875L23.7005 1.85742C23.1232 1.85742 22.6459 2.33317 22.6459 2.92218L22.6348 6.44496C22.6348 6.72814 22.7236 7 22.8901 7.22654L27.5861 14.9631C27.8081 15.2689 27.8081 15.6993 27.5861 16.0052L22.8901 23.753C22.7236 23.9796 22.6348 24.2514 22.6348 24.5346V28.2726C22.6348 28.7483 23.0122 29.1335 23.4785 29.1335L39.7534 29.1448C40.2197 29.1448 40.5971 28.7597 40.5971 28.2839V24.2967C40.5971 23.821 40.2197 23.4359 39.7534 23.4359H37.5331C37.1112 23.4359 36.7449 23.7643 36.7005 24.1948L36.5672 25.3275H27.0976L32.5818 15.9825C32.7927 15.688 32.7927 15.2802 32.5818 14.9857L27.0976 5.66338H36.5672L36.7005 6.80743C36.756 7.23787 37.1112 7.56636 37.5331 7.56636H39.7534C40.2197 7.56636 40.5971 7.18123 40.5971 6.70549Z" fill="white"/>
<path d="M38.0436 18.1007C39.4538 18.1007 40.597 16.9343 40.597 15.4954C40.597 14.0566 39.4538 12.8901 38.0436 12.8901C36.6334 12.8901 35.4902 14.0566 35.4902 15.4954C35.4902 16.9343 36.6334 18.1007 38.0436 18.1007Z" fill="white"/>
</g>
<defs>
<clipPath id="clip0">
<rect width="181" height="30" fill="white"/>
</clipPath>
</defs>
</svg>
